<?xml version="1.0" encoding="utf-8"?>
<!-- Generator: Adobe Illustrator 22.1.0, SVG Export Plug-In . SVG Version: 6.00 Build 0)  -->
<svg version="1.1" id="Layer_1" xmlns="http://www.w3.org/2000/svg" xmlns:xlink="http://www.w3.org/1999/xlink" x="0px" y="0px"
	 viewBox="0 0 503.6 56.7" style="enable-background:new 0 0 503.6 56.7;" xml:space="preserve">
<style type="text/css">
	.st0{clip-path:url(#SVGID_2_);}
	.st1{fill:#FF9100;}
	.st2{fill:#1A237E;}
</style>
<g>
	<defs>
		<rect id="SVGID_1_" width="503.6" height="56.7"/>
	</defs>
	<use xlink:href="#SVGID_1_"  style="overflow:visible;fill:#FFFFFF;"/>
	<clipPath id="SVGID_2_">
		<use xlink:href="#SVGID_1_"  style="overflow:visible;"/>
	</clipPath>
	<g class="st0">
		<path class="st1" d="M476.1,8.8c-10.8,0-19.5,8.7-19.5,19.5c0,7.2,3.9,13.5,9.8,16.9l4.4-7.6c-3.2-1.9-5.4-5.3-5.4-9.3
			c0-5.9,4.8-10.7,10.7-10.7c5.9,0,10.7,4.8,10.7,10.7c0,4-2.2,7.4-5.4,9.3l4.4,7.6c5.8-3.4,9.8-9.7,9.8-16.9
			C495.6,17.6,486.9,8.8,476.1,8.8z"/>
		<path class="st2" d="M482,28.3c0-3.2-2.6-5.9-5.9-5.9c-3.2,0-5.9,2.6-5.9,5.9c0,2.5,1.6,4.6,3.8,5.5l-2.5,13.5
			c1.5,0.4,3,0.6,4.6,0.6c1.6,0,3.1-0.2,4.6-0.6l-2.5-13.5C480.4,33,482,30.8,482,28.3z"/>
	</g>
</g>
</svg>
